<svg width="17" height="16" viewBox="0 0 17 16" fill="none" xmlns="http://www.w3.org/2000/svg">
<path d="M11.9286 10.0571H11.1971L10.9229 9.78286C11.8372 8.77714 12.3858 7.40571 12.3858 5.94286C12.3857 2.65143 9.73429 0 6.44286 0C3.15143 0 0.5 2.65143 0.5 5.94286C0.5 9.23429 3.15143 11.8857 6.44286 11.8857C7.90571 11.8857 9.27714 11.3371 10.2829 10.4229L10.5571 10.6971V11.4285L15.1286 16L16.5 14.6286L11.9286 10.0571ZM6.44286 10.0571C4.15714 10.0571 2.32857 8.22857 2.32857 5.94286C2.32857 3.65714 4.15714 1.82857 6.44286 1.82857C8.72857 1.82857 10.5571 3.65714 10.5571 5.94286C10.5571 8.22857 8.72857 10.0571 6.44286 10.0571Z" fill="#1D1D1B"/>
</svg>
